HIERARCHY
ROOT pelvis
{
	OFFSET 0.003123 -0.351407 0.012037
	CHANNELS 6 Xposition Yposition Zposition Zrotation Yrotation Xrotation 
	JOINT left_hip
	{
		OFFSET 0.058189 -0.092763 -0.026001
		CHANNELS 3 Zrotation Yrotation Xrotation
		JOINT left_knee
		{
			OFFSET 0.054695 -0.378753 -0.009396
			CHANNELS 3 Zrotation Yrotation Xrotation
			JOINT left_ankle
			{
				OFFSET -0.043453 -0.403059 -0.031876
				CHANNELS 3 Zrotation Yrotation Xrotation
				JOINT left_foot
				{
					OFFSET 0.047257 -0.057997 0.118216
					CHANNELS 3 Zrotation Yrotation Xrotation
					End Site
					{
						OFFSET 0.000000 0.000000 0.000000
					}
				}
			}
		}
	}
	JOINT right_hip
	{
		OFFSET -0.063267 -0.103908 -0.021250
		CHANNELS 3 Zrotation Yrotation Xrotation
		JOINT right_knee
		{
			OFFSET -0.044210 -0.362380 -0.016824
			CHANNELS 3 Zrotation Yrotation Xrotation
			JOINT right_ankle
			{
				OFFSET 0.015417 -0.410728 -0.020192
				CHANNELS 3 Zrotation Yrotation Xrotation
				JOINT right_foot
				{
					OFFSET -0.038812 -0.058328 0.119049
					CHANNELS 3 Zrotation Yrotation Xrotation
					End Site
					{
						OFFSET 0.000000 0.000000 0.000000
					}
				}
			}
		}
	}
	JOINT spine_1
	{
		OFFSET -0.002763 0.109891 -0.027618
		CHANNELS 3 Zrotation Yrotation Xrotation
		JOINT spine_2
		{
			OFFSET 0.009448 0.131853 -0.005940
			CHANNELS 3 Zrotation Yrotation Xrotation
			JOINT spine_3
			{
				OFFSET -0.011330 0.052235 0.028447
				CHANNELS 3 Zrotation Yrotation Xrotation
				JOINT neck
				{
					OFFSET -0.012164 0.165167 -0.031615
					CHANNELS 3 Zrotation Yrotation Xrotation
					JOINT head
					{
						OFFSET 0.024783 0.160452 0.020737
						CHANNELS 3 Zrotation Yrotation Xrotation
						End Site
						{
							OFFSET 0.000000 0.000000 0.000000
						}
					}
				}
				JOINT left_collar
				{
					OFFSET 0.046364 0.084944 -0.007220
					CHANNELS 3 Zrotation Yrotation Xrotation
					JOINT left_shoulder
					{
						OFFSET 0.119239 0.057728 -0.015461
						CHANNELS 3 Zrotation Yrotation Xrotation
						JOINT left_elbow
						{
							OFFSET 0.254123 -0.072151 -0.042459
							CHANNELS 3 Zrotation Yrotation Xrotation
							JOINT left_wrist
							{
								OFFSET 0.251987 0.023221 -0.002472
								CHANNELS 3 Zrotation Yrotation Xrotation
								JOINT left_index_1
								{
									OFFSET 0.101902 -0.008688 0.019351
									CHANNELS 3 Zrotation Yrotation Xrotation
									JOINT left_index_2
									{
										OFFSET 0.030149 -0.011154 0.001151
										CHANNELS 3 Zrotation Yrotation Xrotation
										JOINT left_index_3
										{
											OFFSET 0.006504 -0.021577 -0.002433
											CHANNELS 3 Zrotation Yrotation Xrotation
											End Site
											{
												OFFSET 0.000000 0.000000 0.000000
											}
										}
									}
								}
								JOINT left_middle_1
								{
									OFFSET 0.109398 -0.006328 -0.003981
									CHANNELS 3 Zrotation Yrotation Xrotation
									JOINT left_middle_2
									{
										OFFSET 0.026472 -0.015218 -0.004641
										CHANNELS 3 Zrotation Yrotation Xrotation
										JOINT left_middle_3
										{
											OFFSET 0.005022 -0.023347 -0.001911
											CHANNELS 3 Zrotation Yrotation Xrotation
											End Site
											{
												OFFSET 0.000000 0.000000 0.000000
											}
										}
									}
								}
								JOINT left_pinky_1
								{
									OFFSET 0.084047 -0.014539 -0.043750
									CHANNELS 3 Zrotation Yrotation Xrotation
									JOINT left_pinky_2
									{
										OFFSET 0.012124 -0.014448 -0.005375
										CHANNELS 3 Zrotation Yrotation Xrotation
										JOINT left_pinky_3
										{
											OFFSET 0.003798 -0.018853 0.000167
											CHANNELS 3 Zrotation Yrotation Xrotation
											End Site
											{
												OFFSET 0.000000 0.000000 0.000000
											}
										}
									}
								}
								JOINT left_ring_1
								{
									OFFSET 0.097444 -0.009268 -0.027345
									CHANNELS 3 Zrotation Yrotation Xrotation
									JOINT left_ring_2
									{
										OFFSET 0.023561 -0.016057 -0.001895
										CHANNELS 3 Zrotation Yrotation Xrotation
										JOINT left_ring_3
										{
											OFFSET 0.004257 -0.023548 0.000814
											CHANNELS 3 Zrotation Yrotation Xrotation
											End Site
											{
												OFFSET 0.000000 0.000000 0.000000
											}
										}
									}
								}
								JOINT left_thumb_1
								{
									OFFSET 0.040636 -0.017977 0.025611
									CHANNELS 3 Zrotation Yrotation Xrotation
									JOINT left_thumb_2
									{
										OFFSET 0.021637 -0.017639 0.011623
										CHANNELS 3 Zrotation Yrotation Xrotation
										JOINT left_thumb_3
										{
											OFFSET 0.024002 -0.008356 0.006548
											CHANNELS 3 Zrotation Yrotation Xrotation
											End Site
											{
												OFFSET 0.000000 0.000000 0.000000
											}
										}
									}
								}
							}
						}
					}
				}
				JOINT right_collar
				{
					OFFSET -0.047695 0.084339 -0.013400
					CHANNELS 3 Zrotation Yrotation Xrotation
					JOINT right_shoulder
					{
						OFFSET -0.102578 0.053524 -0.012669
						CHANNELS 3 Zrotation Yrotation Xrotation
						JOINT right_elbow
						{
							OFFSET -0.271150 -0.036492 -0.026467
							CHANNELS 3 Zrotation Yrotation Xrotation
							JOINT right_wrist
							{
								OFFSET -0.249267 -0.004533 -0.015325
								CHANNELS 3 Zrotation Yrotation Xrotation
								JOINT right_index_1
								{
									OFFSET -0.099881 -0.011783 0.019600
									CHANNELS 3 Zrotation Yrotation Xrotation
									JOINT right_index_2
									{
										OFFSET -0.030148 -0.011154 0.001151
										CHANNELS 3 Zrotation Yrotation Xrotation
										JOINT right_index_3
										{
											OFFSET -0.006505 -0.021577 -0.002432
											CHANNELS 3 Zrotation Yrotation Xrotation
											End Site
											{
												OFFSET 0.000000 0.000000 0.000000
											}
										}
									}
								}
								JOINT right_middle_1
								{
									OFFSET -0.107376 -0.009422 -0.003734
									CHANNELS 3 Zrotation Yrotation Xrotation
									JOINT right_middle_2
									{
										OFFSET -0.026472 -0.015218 -0.004641
										CHANNELS 3 Zrotation Yrotation Xrotation
										JOINT right_middle_3
										{
											OFFSET -0.005022 -0.023347 -0.001911
											CHANNELS 3 Zrotation Yrotation Xrotation
											End Site
											{
												OFFSET 0.000000 0.000000 0.000000
											}
										}
									}
								}
								JOINT right_pinky_1
								{
									OFFSET -0.082027 -0.017634 -0.043503
									CHANNELS 3 Zrotation Yrotation Xrotation
									JOINT right_pinky_2
									{
										OFFSET -0.012123 -0.014448 -0.005374
										CHANNELS 3 Zrotation Yrotation Xrotation
										JOINT right_pinky_3
										{
											OFFSET -0.003798 -0.018852 0.000167
											CHANNELS 3 Zrotation Yrotation Xrotation
											End Site
											{
												OFFSET 0.000000 0.000000 0.000000
											}
										}
									}
								}
								JOINT right_ring_1
								{
									OFFSET -0.095423 -0.012362 -0.027099
									CHANNELS 3 Zrotation Yrotation Xrotation
									JOINT right_ring_2
									{
										OFFSET -0.023561 -0.016057 -0.001895
										CHANNELS 3 Zrotation Yrotation Xrotation
										JOINT right_ring_3
										{
											OFFSET -0.004257 -0.023548 0.000816
											CHANNELS 3 Zrotation Yrotation Xrotation
											End Site
											{
												OFFSET 0.000000 0.000000 0.000000
											}
										}
									}
								}
								JOINT right_thumb_1
								{
									OFFSET -0.038613 -0.021074 0.025861
									CHANNELS 3 Zrotation Yrotation Xrotation
									JOINT right_thumb_2
									{
										OFFSET -0.021636 -0.017639 0.011623
										CHANNELS 3 Zrotation Yrotation Xrotation
										JOINT right_thumb_3
										{
											OFFSET -0.024004 -0.008353 0.006547
											CHANNELS 3 Zrotation Yrotation Xrotation
											End Site
											{
												OFFSET 0.000000 0.000000 0.000000
											}
										}
									}
								}
							}
						}
					}
				}
			}
		}
	}
}
MOTION
Frames: 4
Frame Time: 0.050000
-0.026591 0.852779 2.058289 -2.084261 -31.675069 -2.760389 -4.410280 -1.387614 -10.082983 2.853331 -0.138071 33.618009 6.700039 5.907163 -33.135494 0.000000 0.000000 0.000000 1.347852 3.248705 -17.997960 16.096000 1.945545 44.982194 -21.161062 -31.399227 -21.741899 0.000000 0.000000 0.000000 3.989098 -1.663478 37.849673 -2.926368 -7.581059 -31.404049 3.044892 -20.996226 17.549957 -1.532928 0.264211 -1.341070 0.000000 0.000000 0.000000 -56.856898 -0.190153 28.963441 -17.293705 -30.991894 -15.218173 25.841687 -29.519849 -2.215072 -28.164007 -14.124143 19.515139 137.369793 34.763033 -163.822511 10.705070 -2.877382 -6.848634 0.000000 0.000000 0.000000 133.258773 48.752331 -159.109247 -6.528258 2.391997 7.629518 0.000000 0.000000 0.000000 -138.719063 -32.725741 -22.155271 48.911115 -2.186563 8.234293 0.000000 0.000000 0.000000 -164.936697 9.627187 -22.811026 45.996198 11.449659 -38.998781 0.000000 0.000000 0.000000 -144.951269 66.617789 -5.817468 139.744440 33.005274 89.445328 0.000000 0.000000 0.000000 30.628132 22.472066 -5.027878 57.374812 -31.867896 -18.231433 1.598390 30.104251 -2.597006 -4.232411 4.331635 25.806710 32.718193 -46.026824 1.501682 29.446398 -47.351758 47.090092 0.000000 0.000000 0.000000 31.930255 -14.751724 -7.036785 88.109480 -30.738691 11.031611 0.000000 0.000000 0.000000 -123.679689 57.246947 -110.913399 -84.455437 -26.580993 -94.019110 0.000000 0.000000 0.000000 23.848282 28.894458 2.138843 92.868602 55.030002 -10.672796 0.000000 0.000000 0.000000 -39.914327 -42.714989 68.727694 -36.372511 42.177917 -37.296674 0.000000 0.000000 0.000000 
-0.036956 0.858582 2.142761 -1.482922 -29.415206 -5.696451 -5.840689 -0.161950 -0.420082 -1.539601 2.326290 38.400889 6.515984 9.707790 -18.117649 0.000000 0.000000 0.000000 -3.984653 3.344872 -20.055950 21.520276 -0.771610 34.771747 -19.293349 -30.782764 -8.700989 0.000000 0.000000 0.000000 3.053341 -1.225203 39.615353 5.163922 -8.468356 -38.365094 -5.484388 -16.238754 29.054598 5.239993 0.018531 -8.224435 0.000000 0.000000 0.000000 -39.139378 -2.533636 18.303849 -21.627926 -30.640409 -11.272543 9.766060 -44.477432 3.361953 10.412636 -13.363269 -10.576912 -157.209961 47.726031 -70.300335 32.741147 0.188551 -16.225610 0.000000 0.000000 0.000000 -135.803229 46.838677 -51.391821 6.506897 -1.792525 -14.580908 0.000000 0.000000 0.000000 -131.911105 -16.530179 -19.313202 38.746990 -0.128996 0.784373 0.000000 0.000000 0.000000 -132.430603 5.831342 -4.303198 23.111345 3.071950 -34.372611 0.000000 0.000000 0.000000 -96.112369 50.142463 36.579672 115.131093 40.149574 74.075980 0.000000 0.000000 0.000000 21.536419 14.799937 -2.471560 58.873585 -19.605165 -18.011561 7.922453 24.938062 -0.254732 -4.357286 2.805195 18.168962 16.842860 -23.062857 5.780439 38.231245 -46.280103 42.859252 0.000000 0.000000 0.000000 14.870317 -0.632312 -2.657629 97.625173 -23.340706 5.052665 0.000000 0.000000 0.000000 -16.279270 38.407922 -17.735180 -88.914225 -28.565786 -141.810967 0.000000 0.000000 0.000000 9.587595 10.295549 -4.859912 110.808963 14.218336 1.496279 0.000000 0.000000 0.000000 -34.675869 -38.796100 49.007865 10.231843 49.925426 -11.179674 0.000000 0.000000 0.000000 
-0.053209 0.877116 2.227234 -0.938893 -23.934691 -9.647729 -6.293320 2.367397 10.692197 -3.200664 1.554358 36.523152 3.010031 7.903649 2.644822 0.000000 0.000000 0.000000 -5.121091 2.366985 -16.386115 19.759908 -1.200512 25.565629 -14.624730 -25.278169 0.813014 0.000000 0.000000 0.000000 4.450199 -2.233407 37.806746 -3.378799 -4.747763 -21.137902 8.331949 -21.065637 12.207947 -1.637316 0.677847 -4.904921 0.000000 0.000000 0.000000 -36.415196 -7.439631 19.737558 -24.765684 -29.035240 -9.173445 10.931196 -60.214771 3.740719 14.709989 -17.261033 -18.567671 -174.766796 49.170561 -111.051622 4.841137 -0.494810 10.384295 0.000000 0.000000 0.000000 -142.938947 53.567343 -64.643253 -4.194841 -3.211540 -19.923407 0.000000 0.000000 0.000000 -136.735946 -6.310145 -24.046472 41.514905 2.445480 -10.115762 0.000000 0.000000 0.000000 -141.629709 13.143696 -13.417034 31.392842 7.700896 -44.207841 0.000000 0.000000 0.000000 -119.684160 43.036430 37.845584 127.495227 30.290724 81.501909 0.000000 0.000000 0.000000 13.827328 2.290088 -6.693846 58.565346 -24.078188 -21.353532 14.182416 27.290034 0.693627 0.943731 0.455667 21.792366 2.545438 -28.934311 11.607752 47.073445 -32.276067 16.769775 0.000000 0.000000 0.000000 1.634213 -10.321947 4.576398 88.708935 -20.869240 0.746254 0.000000 0.000000 0.000000 -19.320354 1.275017 4.244178 117.947088 7.604968 -11.186228 0.000000 0.000000 0.000000 -1.301119 -6.828109 2.551118 103.000615 1.052081 0.502564 0.000000 0.000000 0.000000 -23.989378 -39.459636 46.444035 1.915021 43.165991 -14.458424 0.000000 0.000000 0.000000 
-0.066872 0.894200 2.332825 -1.230517 -25.457715 -11.947428 -4.811347 4.441170 18.586226 -6.340985 3.418970 37.077375 -0.802782 4.193505 10.711677 0.000000 0.000000 0.000000 2.181106 2.845504 -16.650987 10.232180 0.313506 23.516299 -5.975285 -13.877609 5.023486 0.000000 0.000000 0.000000 3.015051 -1.720612 37.040704 -1.754590 -4.742619 -18.370429 10.352702 -13.587139 10.314490 -1.416334 0.446476 -2.682595 0.000000 0.000000 0.000000 -32.380673 -13.068123 19.898323 -29.380300 -29.449547 -7.494839 27.585497 -62.552512 -6.187499 6.623254 -20.267576 -16.689931 -153.330985 42.946049 -66.117556 -21.819516 -10.752147 -32.146829 0.000000 0.000000 0.000000 -123.874828 8.058002 -17.960648 22.090390 -1.082387 -33.111874 0.000000 0.000000 0.000000 -111.995607 -37.548765 -18.862108 31.982401 -0.095392 2.902866 0.000000 0.000000 0.000000 -127.127214 -24.468992 11.885479 50.944662 10.642851 -26.089617 0.000000 0.000000 0.000000 -111.647631 0.684746 61.682318 152.005016 34.583843 78.351787 0.000000 0.000000 0.000000 12.460044 -5.432741 -9.647847 54.269786 -30.150707 -21.260218 19.242872 30.664335 2.177705 4.244170 -0.847881 18.799741 6.072641 -22.379283 8.346374 45.479262 -26.832538 13.129913 0.000000 0.000000 0.000000 2.619510 -7.358722 3.195416 83.103236 -15.806168 -2.360109 0.000000 0.000000 0.000000 -20.008242 7.030804 1.899455 103.475381 40.379761 -16.847097 0.000000 0.000000 0.000000 -1.848101 -3.823077 2.005354 98.572643 6.725398 -4.356684 0.000000 0.000000 0.000000 -14.645589 -35.088055 38.212620 0.161110 33.172834 -11.239783 0.000000 0.000000 0.000000 
